<?xml version="1.0" encoding="utf-8"?>

<!DOCTYPE svg PUBLIC "-//W3C//DTD SVG 1.1//EN" "http://www.w3.org/Graphics/SVG/1.1/DTD/svg11.dtd">
<svg version="1.1" id="Layer_1" xmlns="http://www.w3.org/2000/svg" xmlns:xlink="http://www.w3.org/1999/xlink" x="0px" y="0px"
	 viewBox="-239.8127 -345.4431 1718.8127 1706.3416" enable-background="new -239.8127 -345.4431 1718.8127 1706.3416"
	 xml:space="preserve">
<g>
	<linearGradient id="SVGID_1_" gradientUnits="userSpaceOnUse" x1="842.4403" y1="-283.3051" x2="687.6652" y2="277.9878">
		<stop  offset="0" style="stop-color:#22B414"/>
		<stop  offset="1" style="stop-color:#15780C"/>
	</linearGradient>
	<path fill="url(#SVGID_1_)" d="M886.0051-143.6103c-14.2653,20.3446-36.6984,35.0203-61.2573,39.2346
		c-20.6241,3.6362-42.4604-1.3799-59.7654-13.0533c-18.5545-12.4565-31.7196-32.0551-37.8547-53.4068
		c-6.9742-23.8688-4.4008-50.3485,6.9555-72.4459c12.382-23.9435,35.766-42.0691,62.3017-47.253
		c18.4052-4.3821,37.2766,0.1304,54.5256,6.7878c28.5121,12.6802,48.7076,41.2669,52.4931,72.0915
		C906.5735-187.8237,899.8044-163.1717,886.0051-143.6103z M844.0294-66.2041c-3.5429-4.8854-9.3239-7.403-14.8061-9.3985
		c-25.5098-9.3609-51.6351-16.9877-78.1522-22.8433c-6.1536-1.3612-12.4753-2.9647-18.7593-1.8088
		c-4.979,1.5292-8.7086,5.3707-12.6992,8.4661c-34.181,27.7663-65.8635,58.6466-94.0397,92.5107
		c-2.4243,3.0022-5.0163,6.0978-5.7996,9.9578c-0.0187,2.2378-0.0373,4.457-0.0187,6.6947
		c2.7414,6.396,7.366,11.8225,11.9719,16.9693c3.2263,3.7295,9.1561,3.0396,12.121-0.634
		c19.4869-21.5381,39.2717-43.1321,62.0966-61.1456c-2.7414,23.0857-7.459,45.9104-10.2378,68.9961
		c-5.3702,32.1111-10.7408,64.3156-14.8434,96.6319l-0.5222-1.2308c-3.1326,24.4098-7.7759,48.5957-11.0206,73.0054
		c-2.6293,15.4775-5.1654,30.9923-7.0675,46.563c-0.0373,7.2726,0.056,17.622,7.8879,20.9972
		c7.7017,3.1142,13.184-5.1653,16.1862-11.0207c5.4078-12.0277,7.4963-25.2303,10.9835-37.892
		c6.2656-22.9739,12.3818-45.985,18.2188-69.0894c2.8158-9.3051,4.8854-18.8155,7.6454-28.158
		c2.8529,0.6714,5.7434,1.3054,8.6339,1.9766c-3.0209,11.804-6.9368,23.3468-9.8273,35.188
		c-6.4893,20.9413-12.2889,42.1063-18.2747,63.1968c-2.8531,9.156-5.4263,18.3865-7.9813,27.6171
		c-1.9578,7.6828-3.0953,16.3727,0.6342,23.7198c3.394,4.7738,10.9274,5.3518,14.9181,0.8951
		c10.9648-10.0698,14.0604-25.4167,19.7477-38.6192c8.9509-21.2395,17.5661-42.6471,25.9388-64.129
		c11.002-27.0018,22.1534-53.9848,32.6707-81.1544c12.9973-30.5635,24.5401-61.7422,37.6307-92.2496
		c1.2868,1.7343,2.2006,3.6549,2.7785,5.762c7.8692,25.7338,14.2283,51.9151,18.8342,78.4318
		c0.5035,4.7551,4.9788,9.4543,10.0322,8.2237c6.508-1.7902,12.9415-4.1957,18.8156-7.5896
		c1.7714-3.0396,3.5057-6.1165,5.2214-9.2119c-6.2098-45.8916-17.6407-91.0003-33.0995-134.6357
		C847.9828-56.2461,846.6587-61.5235,844.0294-66.2041z"/>
	<linearGradient id="SVGID_2_" gradientUnits="userSpaceOnUse" x1="558.4703" y1="278.1238" x2="386.7678" y2="-286.4413">
		<stop  offset="0" style="stop-color:#C3161D"/>
		<stop  offset="1" style="stop-color:#ED1D25"/>
	</linearGradient>
	<path fill="url(#SVGID_2_)" d="M415.2091-99.5271c-22.3398-0.7275-43.9897-10.4615-60.1012-25.8271
		c-20.7361-19.468-32.6893-48.3158-30.6939-76.7907c1.7155-27.2444,16.0369-53.5188,38.358-69.3319
		c12.1956-9.044,27.2068-13.0907,41.864-16.0929c26.3302-3.3753,53.8914,6.396,72.539,25.2303
		c15.8505,15.4403,25.5471,36.7544,27.4866,58.7213c3.1516,30.209-8.6523,61.6118-31.0108,82.1801
		C457.9679-106.9491,436.5418-98.9307,415.2091-99.5271z M612.5381-0.546c-29.8735-35.2625-63.4952-67.3736-99.9514-95.8112
		c-4.6992-4.2517-11.4121-4.3077-17.2677-3.0769c-29.2953,6.2096-58.1058,14.6757-86.1892,25.1183
		c-6.8808,2.3869-14.2652,6.3589-16.3913,13.9113c-16.8199,47.0852-30.321,95.7925-35.5796,145.619
		c1.8463,2.8905,3.6551,5.8367,5.4452,8.8017c5.2772,3.5244,11.4868,5.5011,17.5659,7.2353
		c4.8672,1.4545,9.8273-2.4242,10.3495-7.3099c5.3332-28.68,11.1512-57.4718,20.9785-84.977
		c10.2749,21.7803,18.4239,44.5305,27.8968,66.6837c16.3353,39.3279,31.8503,79.01,48.7449,118.0767
		c2.6854,9.0068,6.9744,17.4542,10.3308,26.2372c6.1349,14.1908,11.2443,28.8106,17.939,42.7403
		c2.1816,8.578,6.8435,16.8762,13.799,22.4705c4.8299,4.6246,13.9857,1.7901,15.2354-4.7924
		c3.5989-13.0906-2.5549-26.0321-6.0047-38.47c-7.3099-25.1743-14.5823-50.3672-22.0787-75.4855
		c-2.7972-10.9462-7.0302-21.5194-8.9883-32.652c2.6107-0.7273,5.2401-1.4546,7.8692-2.2191
		c2.0515,5.7062,3.4874,11.6174,5.2028,17.4355c7.1049,27.8222,14.8248,55.4953,22.3212,83.2243
		c2.1818,8.8763,4.5688,17.7152,7.1235,26.4983c2.2936,7.3285,5.9298,14.8807,12.6245,19.1324
		c4.3448,1.6409,9.9207-0.1866,11.8785-4.5873c3.8973-7.8879,3.1143-17.0626,1.6597-25.454
		c-2.0701-11.692-3.5431-23.4586-5.9114-35.0761c-4.6805-30.955-9.5662-61.9101-14.9552-92.7345
		c-7.2728-49.2111-16.1864-98.1982-23.3095-147.428c22.7127,18.2001,42.8895,39.3837,62.3389,60.9776
		c2.9649,3.6549,8.6896,4.7552,12.1583,1.0817c4.7552-5.2028,9.2864-10.8717,12.3818-17.249c-0.0186-2.2376,0-4.4568,0.0187-6.6947
		C618.4307,6.3538,615.3353,2.904,612.5381-0.546z"/>
	<linearGradient id="SVGID_3_" gradientUnits="userSpaceOnUse" x1="803.7122" y1="351.4126" x2="1219.5538" y2="-48.5785">
		<stop  offset="0" style="stop-color:#182291"/>
		<stop  offset="1" style="stop-color:#2288D8"/>
	</linearGradient>
	<path fill="url(#SVGID_3_)" d="M1243.3308,25.3185c-3.4501,23.701-16.5593,45.7797-35.6545,60.2131
		c-11.1326,8.4473-24.0178,15.2909-37.9664,17.2863l-0.578,0.7833c-14.5452,2.2563-29.8362,2.7225-43.9899-1.8834
		c-27.1508-6.6013-49.2108-28.68-58.1431-54.8984c-14.1724-40.4094,1.9208-88.9865,37.5189-112.818
		c17.3982-12.0278,39.1414-17.0815,60.1199-14.8437c10.4613,1.7157,20.8108,4.6061,30.1907,9.6782
		c9.3982,4.811,17.6779,11.5614,24.4467,19.6731C1239.0044-31.7247,1247.601-2.075,1243.3308,25.3185z M1042.701,57.9705
		c-4.6807-4.6246-11.1512-7.4964-17.8086-6.2285c-11.6548,1.5666-23.8317,2.1819-35.0574,5.2401
		c-13.9486,1.1748-27.5799,4.6432-41.2485,7.4777c-4.3824,1.1932-9.1374,1.5663-13.1653,3.7295
		c-17.9203,3.3751-35.2811,9.2678-52.4742,15.2351c-1.7156,3.0955-3.45,6.1723-5.2214,9.2119
		c-1.6783,5.8739,0.2051,12.1582,0.8017,18.1254c0.2427,5.6875,6.5267,9.9205,11.8787,7.5896
		c14.3959-4.3449,28.9783-7.9998,43.5605-11.6921c13.2027-2.1631,26.1813-5.818,39.5704-6.8063
		c-10.6106,14.657-23.2351,27.7476-34.461,41.9198c-17.3979,20.5497-34.9829,40.9502-51.8959,61.8727
		c-12.8671,14.1536-24.6523,29.2394-37.1835,43.6913c-3.2449,4.0652-7.1793,7.6642-9.6409,12.2888
		c-13.5009,14.1162-25.3234,29.743-38.153,44.4745c-7.1422,8.6339-16.0184,17.2677-17.3423,28.997
		c-1.0071,5.7248,4.923,11.7108,10.685,10.5546c9.1374-1.4172,16.298-7.9812,22.6569-14.2468
		c10.0324-10.0883,20.8481-19.3562,30.6568-29.6683c13.1466-12.1023,25.6964-24.8573,38.8055-36.9969
		c5.0536-5.2027,11.0021-9.6408,15.2352-15.5707c1.5292-0.8578,3.0767-1.697,4.6432-2.536
		c1.7154,1.6595,3.4871,3.3006,5.2958,4.9042c-1.1002,1.7902-2.2376,3.5618-3.3751,5.352
		c-18.6369,15.7068-36.1311,32.7772-54.1318,49.2144c-0.0997-0.5967-0.1989-1.192-0.3007-1.7801
		c-11.2817,9.9577-22.1347,20.3631-33.3046,30.4142c-7.1235,6.4335-14.5639,14.1535-15.4589,24.2046
		c0.7089,4.6992,4.8672,9.473,9.9953,8.895c9.0438-0.3917,16.8015-5.8181,23.8502-11.0208
		c8.9006-6.8041,18.0942-13.2173,26.8945-20.1443c0.4279,0.353,0.8547,0.7068,1.3193,1.0357
		c20.6431-14.8994,41.0621-30.0973,61.4251-45.3697c18.4987-13.5195,36.9597-27.1136,55.2718-40.8942
		c18.4236-13.4822,36.7543-27.0949,55.1035-40.6891c6.5454-4.6991,12.7177-9.9951,19.7665-14.0042
		c-2.3309,10.5918-5.4636,20.9971-8.093,31.5331c-4.4381,13.8365-8.3354,27.8595-13.6499,41.3977
		c-1.6599,6.3774-7.2913,13.333-3.506,19.8596c5.4824,6.3029,15.198,5.1841,22.6945,7.1234
		c3.3378-1.6223,6.6755-3.282,9.9575-5.0162c4.2517-9.5848,8.1492-19.3376,11.7667-29.1648
		c13.9484-37.0529,24.1672-75.4483,31.6449-114.3099c2.0142-7.1793-1.9208-14.0602-6.1538-19.5426
		C1085.5718,102.333,1065.0221,79.2473,1042.701,57.9705z"/>
	<linearGradient id="SVGID_4_" gradientUnits="userSpaceOnUse" x1="440.988" y1="352.7705" x2="18.6197" y2="-42.5587">
		<stop  offset="0" style="stop-color:#F36722"/>
		<stop  offset="1" style="stop-color:#FAB020"/>
	</linearGradient>
	<path fill="url(#SVGID_4_)" d="M99.0949,114.1369c-25.6778,4.9043-53.1085-1.9953-73.8633-17.7339
		C7.386,83.2192-5.3503,63.3594-9.9004,41.6351c-5.4265-24.7827-0.4475-51.9898,14.5078-72.6139
		c7.5524-9.1747,15.1605-18.6847,25.3048-25.1183c9.1-5.93,19.2443-10.2749,29.8548-12.5685
		c23.8689-5.4825,49.7331,0.1678,69.6302,14.3028c19.7105,14.1348,34.0132,35.71,38.9362,59.5043
		c5.5196,25.2489,1.0815,53.0523-14.1722,74.1989C141.4064,97.6711,121.0431,110.2769,99.0949,114.1369z M445.0639,344.5841
		c-9.0256-1.697-16.3913-7.776-22.5265-14.2841c-14.0788-13.2584-28.1203-26.5542-42.0689-39.9245
		c-15.7571-14.974-31.5518-29.9294-47.3276-44.8661c-1.3612,2.5174-7.459,4.9602-4.5126,8.1117
		c20.1022,18.8714,41.1738,36.7545,60.9029,55.9988c9.8833,7.5336,18.4985,16.6896,27.9154,24.8199
		c7.2169,6.1724,14.4332,13.3703,16.8762,22.8806c1.5106,5.6129-3.8973,12.1955-9.7713,11.6361
		c-8.8203-0.6341-16.5778-5.5197-23.4402-10.7224c-8.6896-6.564-17.6592-12.699-26.2184-19.4122
		c-22.6942-16.4099-45.4069-32.8384-67.784-49.6771c-21.4074-15.5148-43.0575-30.7686-63.868-47.0107
		c-21.4634-14.0976-41.0994-30.955-62.7679-44.6797c6.4149,28.5309,15.608,56.3531,26.0509,83.6346
		c2.2003,4.3635,0.0931,10.4426-4.7179,11.8972c-5.9671,1.6969-12.1023,3.3752-18.3121,3.4311
		c-3.3566-1.5291-6.6384-3.2073-9.9204-4.8483c-21.0346-45.668-34.5914-94.5061-44.5305-143.6984
		c-1.6783-6.3216,1.7342-12.438,5.2959-17.4169c18.6849-24.5775,39.3092-47.6633,61.388-69.2385
		c4.4381-4.0466,9.8647-8.4288,16.2793-7.5897c16.3167,1.4919,32.54,3.8415,48.6889,6.62
		c21.7805,3.7482,43.393,8.6152,64.6513,14.6943c10.7037,3.0955,21.4821,6.0605,31.8127,10.2747
		c1.8463,2.8905,3.6551,5.8367,5.4452,8.8017c0.1864,6.2656-0.5409,12.5311-1.5292,18.7222
		c-0.5593,4.867-5.5943,8.6898-10.4426,7.2166c-9.6967-2.4055-19.2256-5.4637-28.9222-7.8134
		c-18.5921-4.4008-37.2952-8.5592-56.2786-10.7783c23.3095,29.0343,48.5022,56.5582,71.905,85.5366
		c18.2001,20.3445,35.6916,41.379,53.239,62.3016c13.9297,15.9064,27.6917,31.9993,41.1181,48.3347
		c9.0065,10.9648,21.3327,20.8852,24.1112,35.5237C457.483,339.1203,451.2737,346.02,445.0639,344.5841z M240.2366,236.1805
		c-0.5142-1.226-0.9162-2.4892-1.0981-3.8177C239.3202,233.6914,239.7224,234.9545,240.2366,236.1805z"/>
	<linearGradient id="SVGID_5_" gradientUnits="userSpaceOnUse" x1="855.6855" y1="477.6585" x2="1421.3362" y2="356.5142">
		<stop  offset="0" style="stop-color:#89085A"/>
		<stop  offset="1" style="stop-color:#A1116A"/>
	</linearGradient>
	<path fill="url(#SVGID_5_)" d="M1424.5854,385.6833c-3.0956,27.8036-19.8225,53.7798-43.9713,67.9706
		c-19.356,11.5989-43.1316,15.403-65.2106,10.8343c-30.4701-6.0978-57.7516-27.9901-68.7723-57.2482
		c-7.5708-19.524-7.5708-41.64-0.578-61.3134c8.5592-24.0181,26.7219-44.549,49.8264-55.4579
		c22.0042-10.8529,48.5397-12.2887,71.4204-3.2073c18.0693,7.1234,34.0503,20.1207,43.9709,36.9409
		c4.5313,6.8997,7.9065,14.5451,9.9204,22.5822C1424.1006,359.4835,1426.8977,372.63,1424.5854,385.6833z M1227.7039,403.8275
		c-2.5175-15.2352-6.0792-30.2651-9.79-45.2391c-1.4359-5.5756-3.002-11.4496-7.0488-15.7199
		c-3.0021-2.8718-6.9182-4.4381-10.5544-6.2284c-42.554-20.1021-86.8979-37.2206-133.0134-46.992
		c-3.282,1.7342-6.6198,3.3939-9.9575,5.0162c-3.4127,6.2842-7.1049,12.6431-8.7274,19.6732
		c-0.1489,4.7738,4.0095,8.2237,8.3542,9.1187c27.0948,7.6082,53.9103,16.671,79.4574,28.5308
		c-6.0044,2.7412-12.382,4.4568-18.5729,6.6385c-30.6195,9.7341-61.2015,19.5428-91.6718,29.743
		c-46.675,14.5824-93.0516,30.1159-139.6705,44.9221c-10.8344,3.6922-23.2535,6.191-30.6566,15.7573
		c-3.7669,4.4008-2.0141,12.1581,3.3193,14.5078c11.3934,5.3332,23.9248,0.7086,35.5049-1.4172
		c37.1461-7.4217,74.0498-16.0556,111.3264-22.6941c0.4849,2.5734,1.0068,5.1654,1.5477,7.7574
		c-1.2495,0.429-3.7482,1.2867-4.9976,1.7157c-38.7685,7.0487-77.4993,14.3214-116.2864,21.3515
		c-8.3914,1.5104-17.3422,3.6362-23.496,9.9578c-4.5872,3.972-3.4684,12.326,1.8647,15.1418
		c7.7759,4.7738,17.3237,4.5127,26.088,3.599c70.0405-5.2586,140.0808-10.3121,210.1211-15.6639
		c19.7292-1.1562,39.4213-3.3939,59.1691-3.8788c-19.2072,21.165-41.3232,39.5329-63.8309,57.099
		c-3.6923,2.5547-6.0792,7.8134-3.3938,11.9345c3.9719,5.6316,9.6409,9.79,14.6757,14.4146
		c3.3754,0.429,6.769,0.8205,10.1442,1.3799c10.7784-6.5826,20.5684-14.601,30.5077-22.3398
		c14.2281-11.7853,28.9038-23.2908,41.5283-36.7918c14.0416-12.0276,26.4608-25.8456,39.0106-39.421
		c5.1654-4.8671,6.3776-12.2888,5.4452-19.0579C1232.4031,432.321,1230.5757,417.981,1227.7039,403.8275z"/>
	<linearGradient id="SVGID_6_" gradientUnits="userSpaceOnUse" x1="384.5026" y1="474.5992" x2="-183.0326" y2="364.6334">
		<stop  offset="0" style="stop-color:#89085A"/>
		<stop  offset="1" style="stop-color:#A1116A"/>
	</linearGradient>
	<path fill="url(#SVGID_6_)" d="M386.9208,459.3787c-1.119,4.8298-6.4522,6.825-10.8531,7.3845
		c-13.7433,1.7155-27.095-3.0582-40.4839-5.4265c-33.491-6.5826-66.8519-14.023-100.4733-19.9715
		c-0.2051,2.9276-0.4475,5.8366-0.7086,8.7829c41.2485,7.3472,82.497,14.7503,123.7455,22.0788
		c8.149,1.6223,17.0066,4.2889,22.228,11.1886c2.163,4.177,1.5663,10.7596-3.0582,13.0905
		c-8.5779,5.557-19.2816,4.55-28.9598,3.7668c-50.4417-3.4311-100.8835-6.9742-151.3067-10.4799
		c-1.8834-0.1864-3.7108-0.6154-5.4636-1.2867c-6.8997,0.8392-13.8179-0.0187-20.6803-0.5035
		c-23.0485-1.9206-46.1715-2.7411-69.1827-4.9975c-6.881-0.0187-13.7246-0.8205-20.5869-0.9324
		c19.6732,20.9599,41.8079,39.5143,64.5953,57.0057c3.916,2.5547,5.9858,8.2424,3.0209,12.2888
		c-4.1025,5.184-9.2306,9.4357-14.079,13.9112c-3.7295,0.2423-7.4404,0.5407-11.1512,0.9137
		c-41.118-27.2628-77.2757-61.388-110.8227-97.3965c-7.2353-6.564-5.6875-17.0066-4.7179-25.6778
		c2.6294-19.6359,5.4079-39.3277,9.9765-58.6094c3.226-12.8109,3.9719-27.0017,11.5615-38.1716
		c6.6012-5.8367,15.3283-8.4846,23.1603-12.2328c38.6192-18.4052,79.2523-32.7452,120.8925-42.5352
		c3.282,1.641,6.5639,3.3192,9.9204,4.8483c2.7411,6.0046,6.1165,11.7294,8.1677,18.0322
		c1.6783,4.4941-1.7343,9.4171-6.0976,10.6478c-27.524,8.3728-55.3462,16.8389-81.0426,29.9481
		c79.8116,26.0321,160.0337,50.8894,239.9948,76.4925c11.4308,4.0092,23.7757,6.135,34.1996,12.5871
		C383.5268,447.4442,389.6246,452.8894,386.9208,459.3787z M-60.0065,302.8694c-18.0137-7.8134-38.6006-9.8647-57.6585-4.8857
		c-29.1089,7.1234-53.6304,30.0039-63.1408,58.367c-4.5872,15.9623-6.8063,32.7079-4.5687,49.2483l0.8392-0.8205
		c5.7248,39.5516,41.2298,72.5579,81.1917,75.1126c32.2976,3.0955,65.3225-12.0836,84.4923-38.153
		c13.389-18.1814,19.6359-41.5655,16.4472-63.9612C-6.8421,345.0689-29.6854,315.7362-60.0065,302.8694z"/>
	<linearGradient id="SVGID_7_" gradientUnits="userSpaceOnUse" x1="844.8014" y1="608.788" x2="1383.7172" y2="813.9117">
		<stop  offset="0" style="stop-color:#F36722"/>
		<stop  offset="1" style="stop-color:#FAB020"/>
	</linearGradient>
	<path fill="url(#SVGID_7_)" d="M1212.04,700.9399c-8.4661,28.8105-19.0208,56.9871-31.3468,84.3618
		c-2.536,5.5011-5.8553,11.5056-11.6733,14.0416c-8.1862,2.7972-16.6149,4.7551-24.9877,6.8251
		c-21.2959,5.5756-42.9268,9.9951-64.7446,12.9786c-13.6686,2.4802-27.5239,3.5431-41.3418,4.8484
		c-5.6316,0.2797-11.3376,1.268-16.9133,0.261c-2.6107-1.6037-5.1094-3.3566-7.5895-5.0908
		c-3.0024-5.6317-4.1957-12.0277-5.7436-18.1441c-1.7901-5.3146,2.4803-11.2817,8.0933-11.3191
		c18.2932-1.8275,36.549-4.1584,54.6373-7.5522c10.3494-1.9767,20.6615-4.1025,30.9364-6.4708
		c-8.5405-5.818-18.7594-9.1186-26.9271-15.291c-15.4962-6.825-29.9668-15.7758-45.0897-23.4027
		c-3.6365-2.1258-7.8135-3.543-10.9464-6.3961c-15.9809-7.459-31.3281-16.2048-46.8055-24.6521
		c-12.9786-6.3589-25.4913-13.6129-38.3766-20.1581c-1.4733-1.1748-4.0466-1.4359-4.5873-3.3752
		c-15.7014-6.4708-30.1161-15.72-45.2764-23.3655c-11.487-6.508-23.8317-11.636-34.5541-19.3562
		c-5.2214-4.4568-12.5685-11.6361-8.0559-18.9087c1.3242-3.6362,5.4265-4.8297,8.9136-5.184
		c7.1422-0.6713,14.1537,1.5291,20.699,4.233c10.3866,4.2889,20.8666,8.3727,31.272,12.643
		c11.897,4.7924,23.8315,9.5103,35.6727,14.4519c10.4615,4.0651,20.8666,8.3168,31.2908,12.5685
		c6.0418,2.4241,12.0276,5.0908,18.3121,6.9183c0.7457-2.8717,1.5848-5.7062,2.4427-8.522
		c-8.4101-3.3193-17.3235-6.508-25.51-9.6036c-15.7198-6.1537-31.6823-11.6733-47.3087-18.0135
		c-14.3401-5.0349-28.4563-10.6851-42.7407-15.9065c-8.037-2.853-16.186-6.825-21.2767-13.9484
		c-3.7482-4.4753-1.3426-12.2887,3.9906-14.34c8.5592-3.4871,18.0137-1.3799,26.5915,0.9137
		c18.2185,4.8857,36.5679,9.2493,54.712,14.34c10.4242,2.3123,20.7175,5.1841,31.0483,7.9252
		c13.0905,3.2447,26.1067,6.7319,39.1971,10.0324c14.2471,3.8414,28.6243,7.2353,42.8711,11.2073
		c16.2233,3.9719,32.4095,8.2422,48.5769,12.4939c15.3096,3.5803,30.3209,8.2982,45.7426,11.4124
		c-15.5149-24.7267-34.6844-46.9547-54.0406-68.735c-2.9652-3.0396-3.4127-8.4661-0.2611-11.5429
		c4.8669-4.5873,10.797-7.8506,16.5217-11.2446c3.3754,0.429,6.769,0.8205,10.1442,1.3799c2.3125,0.6899,3.9722,2.592,5.725,4.1771
		c30.6194,31.4585,57.7329,66.2362,81.5272,103.1026c2.8905,4.6059,6.3589,8.9695,8.3541,14.0976
		C1214.5574,690.665,1213.3826,695.9982,1212.04,700.9399z M1357.2487,705.5271c-20.3257-15.4588-47.234-21.7244-72.3152-17.1371
		c-23.123,4.1771-44.8661,16.9507-58.7029,36.1017c-13.0718,17.8644-19.1696,40.857-16.13,62.8238
		c3.6362,28.6055,20.4564,55.4581,45.0898,70.5812c18.2747,11.5616,40.8011,16.8574,62.2272,13.0907
		c27.7101-4.4196,52.7727-22.7875,65.2667-47.9057c5.4636-12.9788,10.8901-26.461,10.8901-40.7824
		C1394.7119,752.8547,1380.7449,723.2983,1357.2487,705.5271z"/>
	<linearGradient id="SVGID_8_" gradientUnits="userSpaceOnUse" x1="392.3586" y1="605.4924" x2="-139.0981" y2="825.5341">
		<stop  offset="0" style="stop-color:#182291"/>
		<stop  offset="1" style="stop-color:#2288D8"/>
	</linearGradient>
	<path fill="url(#SVGID_8_)" d="M401.298,632.2794c-7.7388,12.3074-22.4145,17.0999-34.5354,23.8503
		c-15.4216,8.8389-31.1974,17.0812-46.8615,25.5099c-18.6849,9.9766-37.0528,20.5497-56.0173,30.0041
		c-15.7947,9.1746-31.9996,17.6592-48.1669,26.1812c-17.2864,9.5849-34.6286,19.1138-52.232,28.1393
		c-6.6944,4.5127-14.5451,7.0674-20.8107,12.2142c8.6711,2.3496,17.566,3.7109,26.3117,5.7807
		c18.5917,3.0956,37.2207,5.986,56.036,7.459c4.7926,0.0187,10.3868,2.6294,10.7037,8.0371
		c-0.3169,7.0115-2.9091,13.7433-5.0534,20.3818c-3.1142,2.2377-6.1351,4.5687-9.1,6.9743
		c-20.5497-0.2797-41.0061-2.8345-61.332-5.6689c-18.9832-2.9836-37.9665-6.3215-56.5582-11.1885
		c-9.8085-2.1631-19.6172-4.494-29.1834-7.5896c-8.3914-3.4871-11.4497-12.9228-14.9741-20.5124
		c-10.7224-23.8129-19.7291-48.3532-27.5424-73.2664c-2.5175-7.8134-5.6876-17.1558-0.3358-24.5402
		c20.4005-32.8199,43.02-64.4089,68.9216-93.1448c7.0489-8.7644,15.1045-16.671,22.9552-24.7081
		c3.7109-0.373,7.4217-0.6714,11.1512-0.9137c5.9673,3.916,12.699,7.0861,17.5475,12.4566
		c3.8041,6.6757-2.9837,12.1768-6.881,16.7828c-9.7155,10.5358-18.4798,21.8923-27.5612,32.9689
		c-7.1233,9.79-14.3772,19.4681-21.221,29.4819c1.3614-0.1306,4.0838-0.3543,5.4452-0.4849
		c18.5171-5.2773,37.1647-10.2002,55.8681-14.7875c14.2281-4.1212,28.6056-7.7574,42.9455-11.4496
		c16.7269-4.5127,33.4537-9.0814,50.2552-13.2584c15.9624-4.3449,31.9249-8.7084,47.9989-12.6245
		c16.1302-4.2889,32.1671-9.0068,48.4464-12.6058c11.5057-3.4498,23.6639-8.1116,35.7849-5.24
		c6.7318,1.0258,10.741,10.0138,6.2842,15.403c-5.5383,7.7575-14.713,11.6174-23.3842,14.7317
		c-18.2745,6.7877-36.3628,14.1162-54.712,20.6988c-10.2188,4.4008-20.7548,7.9999-31.0856,12.1209
		c-7.3657,2.6479-14.4706,6.191-22.1905,7.6828c-1.641,1.4359-3.4313,2.6666-5.1841,3.9533
		c1.1561,2.8345,2.2749,6.0791,5.6689,6.8438c13.2584-6.3589,27.095-11.5244,40.7636-16.9321
		c10.1815-4.7179,20.7548-8.5033,31.0483-12.9974c3.0207-1.0815,6.0045-2.9462,9.3238-2.8717
		c6.8995-4.6059,15.0485-6.7131,22.5449-10.0883c10.2002-4.1025,20.6801-9.8273,32.0553-7.9812
		C401.3914,617.5291,405.4564,626.7596,401.298,632.2794z M-3.5229,715.1307c-17.0812-11.0953-37.836-16.3913-58.1246-14.8062
		c-27.8782,2.1072-54.4884,17.3236-69.7234,40.8942c-14.284,21.4634-19.3002,49.155-12.5311,74.1242
		c4.2329,12.4007,8.5405,25.1929,16.9879,35.4863c7.0115,8.6339,15.1045,16.8762,25.2675,21.7432
		c14.3587,9.9578,32.6146,13.4077,49.8823,12.9974c24.5775-1.7901,48.1108-13.762,64.2784-32.3162
		c18.2186-20.6057,27.8035-49.1552,23.7942-76.5671C32.9705,751.6241,17.9778,728.4265-3.5229,715.1307z"/>
	<linearGradient id="SVGID_9_" gradientUnits="userSpaceOnUse" x1="763.7741" y1="717.2092" x2="1122.7405" y2="1178.7375">
		<stop  offset="0" style="stop-color:#C3161D"/>
		<stop  offset="1" style="stop-color:#ED1D25"/>
	</linearGradient>
	<path fill="url(#SVGID_9_)" d="M1027.8949,994.1362c-21.1092,18.9459-43.561,36.3629-66.9822,52.3625
		c-5.7994,4.0465-13.1094,7.7015-20.2886,5.2026c-45.3325-13.4076-89.5272-31.0855-130.8501-54.0781
		c-4.9606-2.4055-7.8881-7.4031-8.9509-12.6245c0.2422-1.8834,0.4849-3.7295,0.7457-5.5756
		c2.7413-6.8436,2.7227-19.1324,12.7178-18.89c6.5826,1.8275,12.326,5.7248,18.517,8.5033
		c21.1465,10.0511,42.7219,19.3936,65.0991,26.3118c-21.5194-37.8546-43.9899-75.1871-65.416-113.0977
		c-16.1489-26.8713-31.7196-54.0967-47.3649-81.2477c-8.9134-14.4705-17.0626-29.3699-25.7709-43.9524
		c-4.5501-7.5709-8.895-15.925-8.5967-25.0064c-0.0931-5.1841,4.5128-9.1932,9.4358-9.6222
		c9.2305,1.6597,15.7758,9.1932,21.1465,16.3167c9.0251,12.5871,18.4796,24.8759,27.2999,37.6123
		c15.8878,21.2955,31.4027,42.8521,47.1412,64.2596c2.5174-1.4359,5.0908-2.8345,7.4404-4.5687
		c-9.5102-14.0976-20.643-27.0203-30.6005-40.7823c-13.352-17.0812-26.424-34.3862-39.5891-51.5979
		c-7.1233-9.1-15.5147-18.3865-16.8573-30.3583c-1.007-6.0977,5.5943-12.2142,11.6174-10.3867
		c12.2142,3.0768,20.1766,13.762,28.3442,22.5636c14.1724,14.9554,28.6614,29.6124,42.4793,44.9034
		c13.8737,14.0789,27.3186,28.5682,40.8568,42.9827c32.9504,34.0505,64.7817,69.2572,98.2357,102.8043
		c-0.8393-29.3326-5.5012-58.4417-10.8155-87.2708c-1.3426-5.1467,2.7784-11.0021,8.3168-10.6292
		c6.0045,0.0187,12.5125-1.268,18.2374,0.8951c2.4801,1.7342,4.9788,3.4871,7.5895,5.0908
		c6.1349,21.0345,9.3052,42.8149,12.5314,64.4648c3.7666,28.4376,6.0232,57.0989,6.1907,85.7977
		C1040.3887,982.929,1033.5452,988.9894,1027.8949,994.1362z M1156.8242,1091.9801c-4.1023-25.0063-19.1882-47.7565-40.0363-62.0033
		c-20.2885-14.0229-46.2462-20.0089-70.5251-15.235c-25.7523,4.7551-48.5956,22.4145-59.9708,45.9664
		c-14.0417,28.046-13.2958,62.8796,1.7341,90.3849c9.9579,19.1698,26.7221,34.8151,46.843,42.7963
		c25.5284,10.5546,56.1663,7.944,79.3269-7.1608c10.7037-7.7386,21.3888-16.0929,28.5308-27.4119
		C1155.7428,1139.7367,1160.9269,1115.1405,1156.8242,1091.9801z"/>
	<g>
		<linearGradient id="SVGID_10_" gradientUnits="userSpaceOnUse" x1="471.7666" y1="712.7206" x2="132.3802" y2="1188.2345">
			<stop  offset="0" style="stop-color:#15780C"/>
			<stop  offset="1" style="stop-color:#22B414"/>
		</linearGradient>
		<path fill="url(#SVGID_10_)" d="M479.5993,723.8204c-11.8414,4.6432-18.4052,16.2794-25.3236,26.1998
			c-13.799,18.6104-27.4119,37.3885-40.7634,56.3158c-9.1003,11.748-17.249,24.186-26.3306,35.934
			c-2.4427-1.6783-4.7737-3.5058-6.8435-5.613c10.1442-14.1534,21.4074-27.4866,31.2534-41.8265
			c10.7037-13.2584,20.8105-26.9832,30.955-40.6705c8.8016-12.3074,21.2397-23.4027,23.9061-38.9362
			c1.7715-6.6758-5.3889-13.6313-11.9343-11.2817c-8.1306,1.9953-14.3401,8.0184-19.8971,13.9297
			c-8.988,9.6223-18.2561,19.0019-26.8712,28.9598c-10.2748,10.1443-19.8969,20.9412-29.7242,31.5331
			c-15.7387,16.6337-31.6636,33.1368-46.8988,50.2366c-13.128,13.2771-25.8082,27.0018-38.414,40.7637
			c-15.8878,16.2048-30.7872,33.3792-46.9361,49.3602c0.9884-29.053,5.2399-57.9008,10.3866-86.4689
			c1.2123-4.6432-0.522-10.5546-5.6687-11.7853c-6.564-0.9884-13.2397-0.3543-19.8224-0.6341
			c-3.1142,2.2377-6.1351,4.5687-9.1,6.9743c-11.375,49.0059-16.9506,99.2798-17.5101,149.5724
			c-0.4848,10.0324,8.4474,16.5591,15.1792,22.545c18.3118,16.0369,37.5563,31.0482,57.6398,44.8289
			c5.7247,3.8787,11.2816,8.41,18.1254,10.163c4.3448,1.1935,8.7456-0.5594,12.904-1.7156
			c38.9551-12.2328,77.2571-27.1323,113.2095-46.619c8.2426-4.3262,20.0091-7.8134,21.6127-18.4612
			c0.3915-7.1234-2.4616-14.0044-4.7365-20.6243c-1.7715-4.8483-7.9252-6.0791-12.121-3.7295
			c-9.9948,4.9043-20.0088,9.8273-29.9853,14.7689c-16.1302,6.4148-31.85,14.1163-48.6515,18.6104
			c5.7994-12.7924,13.9484-24.3352,20.307-36.8477c14.5079-24.503,28.6616-49.2484,42.554-74.087
			c12.5498-21.1464,24.9505-42.4233,36.6984-64.0358c10.014-16.1861,19.3751-32.8199,28.5496-49.5094
			c6.8435-11.8972,16.2607-23.5519,16.8388-37.8361C492.9882,727.3635,485.7344,721.2657,479.5993,723.8204z"/>
		<linearGradient id="SVGID_11_" gradientUnits="userSpaceOnUse" x1="472.7529" y1="713.4245" x2="133.3665" y2="1188.9385">
			<stop  offset="0" style="stop-color:#15780C"/>
			<stop  offset="1" style="stop-color:#22B414"/>
		</linearGradient>
		<path fill="url(#SVGID_11_)" d="M231.959,1032.6434c-19.1511-11.1326-42.6097-13.65-64.0171-8.4846
			c-39.5143,9.0067-71.066,45.6494-73.0426,86.2825c-1.8461,25.8269,7.7574,52.2692,25.9201,70.749
			c6.1724,5.7062,12.9788,10.7224,19.8971,15.5148c20.0275,12.3447,45.3324,15.5521,67.9331,9.1001
			c21.3887-5.9486,40.2977-20.1208,52.0269-38.9735c13.6313-21.0905,18.7409-47.4022,14.079-72.073
			C270.3173,1069.2301,254.8397,1045.3239,231.959,1032.6434z"/>
	</g>
	<linearGradient id="SVGID_12_" gradientUnits="userSpaceOnUse" x1="622.2292" y1="716.5002" x2="622.2292" y2="1306.8213">
		<stop  offset="0" style="stop-color:#182291"/>
		<stop  offset="1" style="stop-color:#2288D8"/>
	</linearGradient>
	<path fill="url(#SVGID_12_)" d="M801.5687,979.4232c-0.2609,1.8461-0.5035,3.6922-0.7457,5.5756
		c-8.9323,10.6665-17.361,21.7618-26.8153,31.9807c-11.0208,13.4076-23.4028,25.6591-35.3746,38.2089
		c-11.7479,11.8972-23.5518,23.7758-35.7847,35.1694c-4.3635,4.3262-8.4288,9.0813-13.5755,12.5126
		c-6.2283,3.3566-13.5569,3.3379-20.4564,3.5244c-35.934,0.5408-71.868-0.6714-107.7646-2.1819
		c-6.1165-0.6713-12.7921-1.9393-17.0064-6.8063c-19.1885-20.3632-38.638-40.5027-56.7263-61.8541
		c-8.783-9.156-16.4842-19.2816-24.2419-29.2954v-0.0001c-7.3097-8.9321-14.6941-18.0507-19.8969-28.4001
		c-1.8834-8.0371,5.7623-14.0604,11.9532-17.6033c7.2913-3.8974,14.1908-10.9089,23.1231-9.5103
		c5.706,0.7646,8.3167,6.5826,11.3934,10.7224c5.3894,8.5779,12.1209,16.2421,17.2119,25.0251
		c12.5685,12.6058,22.0414,28.6987,35.7289,40.3347c1.6781-10.051,3.002-20.1766,5.0348-30.1531
		c1.7155-13.65,4.8857-27.0764,6.5453-40.7263l1.1748,0.0186c0.373-13.2025,4.3635-25.9575,6.452-38.9548
		c1.809-10.3495,3.6551-20.7176,6.2096-30.9178c1.809-12.5313,4.7366-24.8573,7.3659-37.2393
		c2.3867-15.3469,6.3589-30.3956,8.6525-45.7612h1.0444c1.1932-16.8947,6.7129-33.1554,8.5219-49.9943
		c2.2936-11.3378,4.2328-23.3468,11.0021-33.025c3.3007-4.8483,11.4121-4.7551,14.5079,0.2424
		c6.1536,9.1747,6.8248,20.9041,5.3516,31.5519c1.2121,17.6033-0.4476,35.2439-0.7084,52.8472
		c-0.2053,7.5522-0.0746,15.1605-0.9324,22.6941c0.2422,8.9136-0.1493,17.8458-0.8206,26.7407
		c-0.0931,7.9066-0.6526,15.7945-0.4288,23.7197c3.6922,0.1865,7.403,0.0373,11.0952-0.4847
		c-0.1864-10.1071-0.0184-20.2141,0.5222-30.3024c-0.7273-13.2771-0.3544-26.5915-0.2051-39.8686
		c-0.8018-16.3727-0.0747-32.7639-0.6716-49.1552c-0.3729-12.3632-1.6034-25.9574,5.0164-36.9968
		c3.0209-5.296,11.0768-4.4568,14.2095,0.2983c10.5359,13.3331,10.8904,31.2162,14.3586,47.1599
		c2.4616,17.3981,7.515,34.4608,8.41,52.0454l1.0071,0.1679c2.0327,15.8131,5.4265,31.4398,7.1422,47.309
		c2.387,17.5847,5.8925,35.0761,6.6571,52.81c3.1143,10.8715,3.0023,22.9552,4.5128,34.3115
		c1.3799,12.4007,2.7225,24.8386,3.6548,37.2952c1.2122,12.2888,2.0885,24.6149,3.226,36.9037
		c9.8646-7.9999,18.0323-17.8458,26.2933-27.4494l1.3613,0.0187c3.3378-5.7621,8.2794-10.3122,12.5498-15.3469
		c7.5524-8.6712,14.1348-18.1255,21.3514-27.0764c3.6922-4.7925,10.7971-5.5943,15.9625-2.704
		c5.8738,3.1888,11.3004,7.1608,16.7829,10.9835C798.8835,970.3231,799.6666,975.358,801.5687,979.4232z M595.3078,1126.1611
		c-18.4614,4.7365-36.4935,13.9299-49.174,28.3632c-11.4495,10.5544-19.6918,24.708-23.0669,39.9244
		c-6.3218,28.6614,4.1024,59.5791,24.1859,80.5204c17.249,19.7478,42.8335,32.7264,69.2757,32.6519
		c17.6779,0.8392,36.5308-3.226,50.8521-13.9111c4.3637-1.3799,7.8132-4.5499,11.3752-7.2725
		c8.8016-7.2166,17.4352-15.1232,22.8247-25.2861c23.0855-30.8992,21.314-78.6184-6.0978-106.3846
		C670.4575,1128.1005,630.5889,1117.2662,595.3078,1126.1611z"/>
</g>
</svg>
